Coordinates
version=1
nRows=29
nColumns=24
inDegrees=yes

Units are S.I. units (second, meters, Newtons, ...)
Angles are in degrees.

endheader
time	pelvis_tilt	pelvis_list	pelvis_rotation	pelvis_tx	pelvis_ty	pelvis_tz	hip_flexion_r	hip_adduction_r	hip_rotation_r	knee_angle_r	ankle_angle_r	subtalar_angle_r	mtp_angle_r	hip_flexion_l	hip_adduction_l	hip_rotation_l	knee_angle_l	ankle_angle_l	subtalar_angle_l	mtp_angle_l	lumbar_extension	lumbar_bending	lumbar_rotation
      3.63500000	     -7.83661788	      9.05989156	      0.24910796	     -0.68909545	     -0.01592381	      0.67304674	     38.07058677	    -13.41545601	     -3.20381913	    -67.22006565	    -17.44636841	    -18.68657884	     23.07073328	      6.03909790	     12.74534109	     10.56939865	    -14.79965991	     16.04709545	     -7.91197783	    -29.17093557	      7.07053388	    -10.09777071	     -6.55964323
      3.64000000	     -7.70912688	      8.91681764	      0.35527497	     -0.68256707	     -0.01594355	      0.67266265	     38.42606531	    -13.22202115	     -3.26437027	    -66.38868182	    -17.07009408	    -18.79702982	     22.16709065	      5.23387958	     12.57885969	     10.74880620	    -14.36945434	     16.18149955	     -7.79860711	    -29.00027587	      6.82875934	     -9.90124606	     -6.83811140
      3.64500000	     -7.59459474	      8.77116385	      0.44512649	     -0.67607292	     -0.01605295	      0.67230326	     38.77941232	    -13.00481717	     -3.27689201	    -65.50262209	    -16.71559522	    -18.83971459	     21.44810542	      4.45853384	     12.40522534	     10.89459325	    -13.95970331	     16.31257024	     -7.68460149	    -28.78753596	      6.59854077	     -9.69638825	     -7.13265788
      3.65000000	     -7.45229156	      8.65914546	      0.54134790	     -0.66955943	     -0.01621222	      0.67197924	     39.07967926	    -12.83052719	     -3.29021828	    -64.57594688	    -16.30424105	    -18.82933224	     20.66949307	      3.65496206	     12.25700447	     11.02902349	    -13.55734439	     16.41852851	     -7.50114113	    -28.46278440	      6.33824977	     -9.52869472	     -7.35856020
      3.65500000	     -7.35028406	      8.52972931	      0.62070328	     -0.66308128	     -0.01647955	      0.67166023	     39.40537040	    -12.61466165	     -3.24837937	    -63.59431931	    -15.94883581	    -18.76190744	     20.13727082	      2.91867096	     12.09060897	     11.11482450	    -13.18720301	     16.53474134	     -7.34445797	    -28.14783165	      6.11864455	     -9.33591662	     -7.63648725
      3.66000000	     -7.21185676	      8.42737682	      0.69962283	     -0.65658896	     -0.01678878	      0.67139414	     39.66885984	    -12.43011981	     -3.20632838	    -62.57724637	    -15.54896253	    -18.67764073	     19.52286315	      2.14502410	     11.94122169	     11.18823166	    -12.82221966	     16.63583867	     -7.12394295	    -27.72552714	      5.85977896	     -9.17391202	     -7.84020549
      3.66500000	     -7.11240668	      8.31596637	      0.76981169	     -0.65010279	     -0.01720486	      0.67112718	     39.95441634	    -12.22360811	     -3.12424385	    -61.51713282	    -15.19165912	    -18.54866733	     19.05081908	      1.43331493	     11.78350722	     11.21156177	    -12.48626588	     16.75388377	     -6.92071401	    -27.33086321	      5.64413504	     -8.99601824	     -8.09314433
      3.67000000	     -7.01359952	      8.21632433	      0.83060665	     -0.64361520	     -0.01767904	      0.67090692	     40.21721165	    -12.01770388	     -3.01636096	    -60.41635050	    -14.83577418	    -18.43084504	     18.58987809	      0.73410193	     11.63213315	     11.21057322	    -12.16978966	     16.86189953	     -6.68812044	    -26.93475495	      5.42577115	     -8.82703602	     -8.31550920
      3.67500000	     -6.91771842	      8.12388244	      0.89291081	     -0.63710484	     -0.01822985	      0.67070965	     40.45879587	    -11.82271448	     -2.90286661	    -59.28518672	    -14.47596495	    -18.29966172	     18.10975907	      0.04664732	     11.48414084	     11.18647488	    -11.87189596	     16.98649188	     -6.41991992	    -26.49394263	      5.21378969	     -8.66841270	     -8.52856392
      3.68000000	     -6.94296916	      8.04382983	      0.94871666	     -0.63054791	     -0.01897189	      0.67051521	     40.81557433	    -11.62641365	     -2.73945281	    -58.11680389	    -14.20060599	    -18.19989246	     17.87650302	     -0.50953179	     11.35520512	     11.24346360	    -11.58967387	     17.14259995	     -6.21741615	    -26.24336477	      5.14550557	     -8.51673729	     -8.66504295
      3.68500000	     -6.78901906	      7.94632104	      1.01515218	     -0.62400254	     -0.01956303	      0.67031460	     40.93365494	    -11.45044084	     -2.64285704	    -56.91659708	    -13.82684994	    -18.01786625	     17.38812096	     -1.24433570	     11.19213757	     11.14773345	    -11.32405337	     17.32137905	     -5.81649922	    -25.79968268	      4.86774647	     -8.34307993	     -8.91398191
      3.69000000	     -6.77179133	      7.88328243	      1.04983256	     -0.61745156	     -0.02039376	      0.67033229	     41.20536589	    -11.24383680	     -2.45837805	    -55.72296030	    -13.39269225	    -17.84961546	     16.44945830	     -1.79897488	     11.04478572	     10.82125003	    -11.04751088	     16.72205640	     -5.44982663	    -22.79557160	      4.74617231	     -8.22946984	     -9.06879327
      3.69500000	     -6.75969977	      7.81244863	      1.14080429	     -0.61087394	     -0.02120775	      0.67013496	     41.42528573	    -11.10483348	     -2.33831362	    -54.44316806	    -13.11137052	    -17.74636289	     16.27257506	     -2.35229935	     10.91596150	     10.75577996	    -10.84921362	     16.95184677	     -5.05052732	    -22.61157498	      4.62462431	     -8.08938875	     -9.29994704
      3.70000000	     -6.70132956	      7.74121247	      1.19361915	     -0.60433166	     -0.02201510	      0.67003765	     41.57571306	    -10.92907095	     -2.16402174	    -53.13796137	    -12.76048972	    -17.57078290	     15.85576830	     -2.92879993	     10.77636408	     10.59477471	    -10.68680681	     17.15312552	     -4.55708208	    -22.19735647	      4.44667113	     -7.93976586	     -9.51180785
      3.70500000	     -6.72694612	      7.66590360	      1.27640632	     -0.59768378	     -0.02291594	      0.66988371	     41.77153506	    -10.78557642	     -2.03671993	    -51.78925708	    -12.34621212	    -17.31259229	     15.52353805	     -3.41112809	     10.63739183	     10.43285044	    -10.53908587	     17.29667387	     -4.09826878	    -21.68165388	      4.37474623	     -7.78700059	     -9.71465589
      3.71000000	     -6.86672684	      7.59857569	      1.33612437	     -0.59102669	     -0.02392546	      0.66973128	     42.07360693	    -10.62073164	     -1.83295139	    -50.39136721	    -12.07385355	    -17.08678629	     15.44610889	     -3.78058659	     10.52282667	     10.40684305	    -10.37473877	     17.40879288	     -3.86644141	    -21.46883811	      4.43651252	     -7.63678984	     -9.88267497
      3.71500000	     -6.82099112	      7.52240115	      1.43548150	     -0.58444748	     -0.02475076	      0.66965052	     42.12663064	    -10.49227561	     -1.70455380	    -48.96897754	    -11.61020870	    -16.66622819	     15.11247060	     -4.27966290	     10.35924278	     10.02022281	    -10.31595451	     17.57163475	     -3.08324427	    -20.64909715	      4.26582220	     -7.49574823	    -10.15572798
      3.72000000	     -6.98982774	      7.37919519	      1.52682474	     -0.57766343	     -0.02576949	      0.66958420	     42.35744229	    -10.28245499	     -1.59531851	    -47.49450399	    -11.12556503	    -16.25570262	     14.60214859	     -4.56094715	     10.12538134	      9.57978623	    -10.16877756	     16.86430542	     -2.58726223	    -17.23419891	      4.37308711	     -7.27344431	    -10.32393435
      3.72500000	     -7.15837091	      7.28520905	      1.60982320	     -0.57092353	     -0.02676073	      0.66936954	     42.56558083	    -10.13263232	     -1.41760265	    -45.96096755	    -10.75307397	    -15.76823656	     14.79975874	     -4.85622340	      9.98638539	      9.53270503	    -10.09317557	     16.98812554	     -2.29479710	    -17.14287297	      4.47111383	     -7.07892213	    -10.50268525
      3.73000000	     -7.24462663	      7.20192447	      1.78012629	     -0.56421230	     -0.02765996	      0.66911917	     42.63353603	    -10.07491811	     -1.33838695	    -44.40551956	    -10.24801063	    -15.11441499	     15.10980053	     -5.18580590	      9.83259153	      9.30508182	    -10.11775068	     17.19227827	     -1.62436227	    -16.83499323	      4.46004190	     -6.91744223	    -10.78313532
      3.73500000	     -7.36816689	      6.99026755	      1.84590891	     -0.55735860	     -0.02852229	      0.66907025	     42.68605511	     -9.80040716	     -1.21433322	    -42.76790957	     -9.96424459	    -14.66109234	     15.43273292	     -5.44738216	      9.52430632	      8.77807622	    -10.14686875	     17.17012509	     -0.77109562	    -15.47065808	      4.52877963	     -6.60452229	    -10.94571097
      3.74000000	     -7.59770614	      6.88694810	      2.05208910	     -0.55044842	     -0.02948962	      0.66867900	     42.83557576	     -9.76012090	     -1.15415831	    -41.18501048	     -9.43885837	    -13.82128853	     15.73284067	     -5.65629374	      9.37015098	      8.85767080	    -10.13203626	     17.16390896	     -0.46425817	    -15.20787716	      4.71002028	     -6.40636624	    -11.20714969
      3.74500000	     -7.72614162	      6.66584146	      2.21952492	     -0.54357220	     -0.03032909	      0.66853475	     42.81441504	     -9.54882590	     -1.05239634	    -39.53133079	     -9.14907724	    -13.25366504	     16.38207870	     -5.86402786	      9.03554469	      8.34313747	    -10.22560025	     16.78582576	      0.42691642	    -12.63044962	      4.77581195	     -6.09102380	    -11.46822445
      3.75000000	     -7.97252777	      6.56481653	      2.50572199	     -0.53660423	     -0.03127639	      0.66806067	     42.92163375	     -9.56077140	     -0.98613686	    -37.98610485	     -8.58574196	    -12.27023869	     16.60540687	     -6.02843268	      8.87182505	      8.44410497	    -10.20993761	     16.20673934	      0.60685903	    -10.72988482	      4.97663590	     -5.89943556	    -11.82277542
      3.75500000	     -8.15011847	      6.39630520	      2.75477871	     -0.52953582	     -0.03214014	      0.66768437	     42.91204332	     -9.47553024	     -0.89851153	    -36.43559554	     -8.11581282	    -11.39131169	     16.98666659	     -6.21117910	      8.62122593	      8.37126344	    -10.35336071	     16.31566193	      1.23452955	    -10.51530561	      5.12159445	     -5.63027332	    -12.12195328
      3.76000000	     -8.28899186	      6.12215938	      2.98196447	     -0.52232498	     -0.03290397	      0.66740355	     42.80401347	     -9.26332954	     -0.81851807	    -34.86479711	     -7.87634480	    -10.77261450	     17.60013962	     -6.41253571	      8.22924063	      8.10074444	    -10.49927002	     16.23927045	      2.05416188	     -9.39026982	      5.25056254	     -5.24546421	    -12.38267059
      3.76500000	     -8.49113901	      5.97120350	      3.31910757	     -0.51509104	     -0.03376470	      0.66687172	     42.77975682	     -9.25628119	     -0.72266280	    -33.44987134	     -7.40400538	     -9.80758553	     17.91749691	     -6.56621571	      7.99735837	      8.21785405	    -10.65691319	     16.16920319	      2.49458055	     -9.06574970	      5.44502965	     -4.99610055	    -12.75447140
      3.77000000	     -8.56993457	      5.63373415	      3.58856454	     -0.50765117	     -0.03442260	      0.66657884	     42.54449805	     -8.99990691	     -0.62231728	    -31.99932862	     -7.21605950	     -9.25881013	     18.40692387	     -6.81957942	      7.50877894	      7.94649872	    -10.79627167	     15.79775221	      3.32968986	     -7.05892129	      5.54573859	     -4.54444377	    -13.03612682
      3.77500000	     -8.78068079	      5.47162399	      3.96427638	     -0.50023853	     -0.03526591	      0.66598784	     42.49416427	     -9.00327307	     -0.48719666	    -30.74818038	     -6.81923189	     -8.32739341	     18.64757079	     -6.94523495	      7.25519410	      8.12304427	    -10.99116592	     15.67698657	      3.77703380	     -6.75405001	      5.77637237	     -4.28080495	    -13.42252678
